<svg xmlns="http://www.w3.org/2000/svg" width="1920" height="1080" viewBox="0 0 1920 1080"><rect width="100%" height="100%" fill="#DDDDDD"/><path fill="#999999" d="M408.465 439.325h53.69v222.13h-53.69zm61.05-64.73q0 6.93-2.81 12.99-2.82 6.06-7.47 10.61-4.66 4.54-10.94 7.25-6.27 2.7-13.42 2.7-6.93 0-13.1-2.7-6.17-2.71-10.71-7.25-4.55-4.55-7.26-10.61-2.7-6.06-2.7-12.99 0-7.15 2.7-13.43 2.71-6.27 7.26-10.82 4.54-4.55 10.71-7.25 6.17-2.71 13.1-2.71 7.15 0 13.42 2.71 6.28 2.7 10.94 7.25 4.65 4.55 7.47 10.82 2.81 6.28 2.81 13.43m100.67 286.86h-53.47v-222.13h32.69q10.39 0 13.64 9.74l3.46 16.46q5.85-6.5 12.24-11.91 6.38-5.41 13.64-9.31 7.25-3.9 15.58-6.17 8.34-2.27 18.3-2.27 21 0 34.53 11.36 13.53 11.37 20.24 30.2 5.2-11.04 12.99-18.94 7.8-7.9 17.11-12.88 9.3-4.98 19.81-7.36 10.5-2.38 21.1-2.38 18.41 0 32.7 5.63 14.28 5.62 24.03 16.45 9.74 10.82 14.83 26.41 5.08 15.59 5.08 35.73v141.37h-53.47v-141.37q0-21.22-9.31-31.94t-27.28-10.72q-8.23 0-15.26 2.82-7.04 2.81-12.34 8.12-5.31 5.3-8.34 13.31t-3.03 18.41v141.37h-53.69v-141.37q0-22.3-8.99-32.48-8.98-10.18-26.3-10.18-11.69 0-21.76 5.74t-18.73 15.7zm426.51-57.37v-37.46q-23.17 1.09-38.97 4.01-15.81 2.92-25.33 7.47-9.53 4.54-13.64 10.61-4.11 6.06-4.11 13.2 0 14.08 8.33 20.14 8.34 6.06 21.76 6.06 16.45 0 28.47-5.95 12.01-5.96 23.49-18.08m-113.01-116.7-9.53-17.1q38.32-35.07 92.23-35.07 19.48 0 34.86 6.38 15.37 6.39 25.98 17.76 10.6 11.36 16.12 27.17 5.53 15.8 5.53 34.64v140.29h-24.25q-7.58 0-11.69-2.27-4.12-2.28-6.5-9.2l-4.76-16.03q-8.45 7.58-16.46 13.32t-16.67 9.63q-8.66 3.9-18.51 5.96-9.85 2.05-21.76 2.05-14.07 0-25.98-3.78-11.9-3.79-20.56-11.37t-13.43-18.84q-4.76-11.25-4.76-26.19 0-8.45 2.82-16.78 2.81-8.34 9.2-15.91 6.38-7.58 16.56-14.29 10.17-6.71 25.01-11.69 14.83-4.98 34.53-8.12t45.03-3.79v-12.99q0-22.3-9.53-33.02-9.52-10.72-27.49-10.72-12.99 0-21.54 3.04-8.56 3.03-15.05 6.82-6.5 3.78-11.8 6.82-5.3 3.03-11.8 3.03-5.63 0-9.53-2.93-3.89-2.92-6.27-6.82m296.6 57.59q9.96 0 17.32-2.7 7.36-2.71 12.23-7.47 4.87-4.77 7.36-11.48t2.49-14.72q0-16.45-9.85-26.09-9.85-9.63-29.55-9.63t-29.55 9.63q-9.85 9.64-9.85 26.09 0 7.79 2.49 14.51 2.49 6.71 7.36 11.58t12.34 7.58q7.47 2.7 17.21 2.7m60.4 126.44q0-6.5-3.89-10.61-3.9-4.11-10.61-6.39-6.71-2.27-15.7-3.35-8.98-1.08-19.05-1.63-10.07-.54-20.78-.97-10.72-.43-20.9-1.73-8.87 4.98-14.39 11.69t-5.52 15.59q0 5.84 2.92 10.93t9.31 8.77 16.56 5.74q10.18 2.05 24.9 2.05 14.94 0 25.76-2.27 10.83-2.27 17.86-6.28 7.04-4 10.29-9.53 3.24-5.52 3.24-12.01m-10.6-224.51h63.86v19.92q0 9.52-11.47 11.69l-19.92 3.68q4.55 11.47 4.55 25.11 0 16.46-6.61 29.77-6.6 13.32-18.29 22.63-11.69 9.3-27.6 14.39-15.92 5.09-34.32 5.09-6.49 0-12.56-.65-6.06-.65-11.9-1.73-10.4 6.28-10.4 14.07 0 6.71 6.17 9.85t16.35 4.44 23.17 1.62q12.99.33 26.63 1.41 13.63 1.08 26.62 3.79t23.17 8.55q10.18 5.85 16.35 15.91 6.17 10.07 6.17 25.88 0 14.72-7.26 28.57-7.25 13.86-21 24.69-13.74 10.82-33.77 17.42-20.03 6.61-45.57 6.61-25.12 0-43.74-4.87-18.62-4.88-30.96-12.99-12.34-8.12-18.4-18.73t-6.06-22.09q0-15.58 9.42-26.08 9.41-10.5 25.87-16.78-8.88-4.55-14.07-12.13-5.2-7.57-5.2-19.91 0-4.98 1.84-10.29 1.84-5.3 5.41-10.5 3.57-5.19 8.99-9.85 5.41-4.65 12.77-8.33-16.89-9.1-26.52-24.25-9.63-15.16-9.63-35.51 0-16.45 6.6-29.77 6.6-13.31 18.4-22.73t27.93-14.4 35.18-4.98q14.29 0 26.85 2.93 12.55 2.92 22.95 8.55m139.85 77.94h100.89q0-10.39-2.92-19.59-2.92-9.21-8.77-16.13-5.84-6.93-14.83-10.94-8.98-4-20.89-4-23.17 0-36.48 13.2-13.31 13.21-17 37.46m136.4 32.26h-137.48q1.3 17.1 6.06 29.55 4.77 12.45 12.56 20.57 7.8 8.12 18.51 12.12 10.72 4.01 23.71 4.01t22.41-3.03q9.41-3.04 16.45-6.72t12.34-6.71q5.31-3.03 10.28-3.03 6.72 0 9.96 4.98l15.38 19.49q-8.88 10.39-19.92 17.42-11.04 7.04-23.06 11.26t-24.46 5.96q-12.45 1.73-24.14 1.73-23.17 0-43.09-7.69-19.92-7.68-34.64-22.73t-23.16-37.24q-8.45-22.19-8.45-51.42 0-22.73 7.36-42.76 7.37-20.02 21.11-34.85 13.75-14.83 33.56-23.49t44.71-8.66q21 0 38.75 6.71t30.53 19.59q12.77 12.88 20.02 31.61 7.26 18.73 7.26 42.76 0 12.12-2.6 16.35-2.6 4.22-9.96 4.22"/></svg>